<svg id="Capa_1" data-name="Capa 1" xmlns="http://www.w3.org/2000/svg" viewBox="0 0 697.16 297.47"><defs><style>.cls-1{fill:#000100;}.cls-2{fill:#b26b3d;}.cls-3{fill:#747530;}.cls-4{fill:#ed6b61;}.cls-5{fill:#f8ac33;}.cls-6{fill:#e00814;}.cls-7{fill:#067aa3;}.cls-8{fill:#228539;}.cls-9{fill:#06b2b7;}.cls-10{fill:#94c131;}.cls-11{fill:#428937;}</style></defs><path class="cls-1" d="M354.93,142.34a28.7,28.7,0,0,1-3.48,12.91,44.08,44.08,0,0,1-10.62,13.1,54.15,54.15,0,0,1-18,10,73.64,73.64,0,0,1-24.42,3.79q-28.87,0-45.08-17.48t-16.2-46.86q0-19.9,7.42-35.19A54.44,54.44,0,0,1,266,59q14-8.35,33.55-8.35a64.55,64.55,0,0,1,22.2,3.67,57.37,57.37,0,0,1,17.11,9.48,44.91,44.91,0,0,1,10.73,12.38c2.47,4.39,3.71,8.47,3.71,12.27a13.14,13.14,0,0,1-4.17,9.83,14,14,0,0,1-10.1,4,9.93,9.93,0,0,1-6.44-2.07,32.79,32.79,0,0,1-5.77-6.7q-5.7-9-11.92-13.51t-15.81-4.5q-13.8,0-22.25,11.2t-8.44,30.63a61.44,61.44,0,0,0,2.16,16.76,38.79,38.79,0,0,0,6.28,13,27,27,0,0,0,9.93,8.17,29.18,29.18,0,0,0,12.78,2.79,28,28,0,0,0,16-4.5q6.67-4.51,11.82-13.75a31.4,31.4,0,0,1,6.16-8.53,11.44,11.44,0,0,1,8.1-3.08,11.84,11.84,0,0,1,9.47,4.5A14.73,14.73,0,0,1,354.93,142.34Z"/><path class="cls-1" d="M460.83,164.14A96.05,96.05,0,0,1,439,177.83a59.14,59.14,0,0,1-23.68,4.56,43.49,43.49,0,0,1-21.05-4.92,35.17,35.17,0,0,1-14-13.33,35.61,35.61,0,0,1-4.91-18.25q0-13.26,8.11-22.63t22.25-12.56q3-.7,14.72-3.2t20.14-4.56q8.39-2.07,18.2-5-.57-12.8-5-18.78t-18.2-6q-11.88,0-17.86,3.44a29.36,29.36,0,0,0-10.27,10.31q-4.29,6.87-6.05,9.06t-7.59,2.19a13,13,0,0,1-9.07-3.49,11.59,11.59,0,0,1-3.82-9q0-8.53,5.81-16.59t18.15-13.27q12.33-5.21,30.7-5.21,20.53,0,32.29,5T484.51,71.6q4.85,10.91,4.85,28.91,0,11.38-.06,19.32t-.17,17.65a67.38,67.38,0,0,0,2.91,19q2.91,9.9,2.91,12.74c0,3.31-1.51,6.34-4.51,9.06a14.78,14.78,0,0,1-10.21,4.09q-4.8,0-9.48-4.68A68.68,68.68,0,0,1,460.83,164.14Zm-2.06-46.8a152.43,152.43,0,0,1-19.91,5.51q-13.07,2.9-18.09,4.26a24.28,24.28,0,0,0-9.58,5.34q-4.57,4-4.57,11.07A16.7,16.7,0,0,0,412,156q5.37,5.16,14,5.16A35.37,35.37,0,0,0,443.08,157a27.42,27.42,0,0,0,11.47-10.84q4.21-7.35,4.22-24.17Z"/><path class="cls-1" d="M552.35,70.18V179.9q0,11.73-.74,19.14t-2.12,10.72q-7.75,20.63-33,20.62-14.14,0-21.45-4t-7.3-11.73a13.22,13.22,0,0,1,3.31-9.3,11.2,11.2,0,0,1,8.67-3.62,21.79,21.79,0,0,1,2.23.18q1.53.18,4.56.42c2,.15,3.4.23,4.16.23q6.29,0,8.39-5.09t2.11-18.25v-109q0-9.6,4.34-14.46a14.55,14.55,0,0,1,11.41-4.86,14.2,14.2,0,0,1,11.13,4.8Q552.34,60.46,552.35,70.18ZM536.94,35.82a16.08,16.08,0,0,1-11.12-4.15q-4.64-4.16-4.63-11.73a14.84,14.84,0,0,1,4.74-11.32,15.61,15.61,0,0,1,11-4.44,16,16,0,0,1,10.73,4q4.68,4,4.68,11.73c0,5-1.53,8.87-4.57,11.67A15.48,15.48,0,0,1,536.94,35.82Z"/><path class="cls-1" d="M663,164.14a96,96,0,0,1-21.85,13.69,59.14,59.14,0,0,1-23.68,4.56,43.5,43.5,0,0,1-21.06-4.92,35.17,35.17,0,0,1-14-13.33,35.6,35.6,0,0,1-4.9-18.25q0-13.26,8.1-22.63t22.25-12.56q3-.7,14.72-3.2t20.14-4.56q8.4-2.07,18.21-5-.59-12.8-5-18.78t-18.2-6Q626,73.14,620,76.58a29.44,29.44,0,0,0-10.27,10.31A108.37,108.37,0,0,1,603.64,96q-1.77,2.19-7.59,2.19A13,13,0,0,1,587,94.65a11.59,11.59,0,0,1-3.82-9q0-8.53,5.82-16.59t18.14-13.27q12.33-5.21,30.7-5.21,20.53,0,32.29,5T686.72,71.6q4.85,10.91,4.85,28.91,0,11.38-.06,19.32t-.17,17.65a67.38,67.38,0,0,0,2.91,19q2.91,9.9,2.91,12.74c0,3.31-1.5,6.34-4.51,9.06a14.77,14.77,0,0,1-10.21,4.09q-4.8,0-9.47-4.68A69.07,69.07,0,0,1,663,164.14Zm-2-46.8a153.12,153.12,0,0,1-19.92,5.51Q628,125.75,623,127.11a24.34,24.34,0,0,0-9.58,5.34q-4.56,4-4.57,11.07A16.67,16.67,0,0,0,614.2,156q5.35,5.16,14,5.16A35.41,35.41,0,0,0,645.3,157a27.34,27.34,0,0,0,11.46-10.84Q661,138.78,661,122Z"/><path class="cls-1" d="M268.94,277a31.29,31.29,0,0,1-7,4.24,19.66,19.66,0,0,1-7.61,1.41,14.54,14.54,0,0,1-6.78-1.52A11.23,11.23,0,0,1,243,277a10.68,10.68,0,0,1-1.58-5.66,10.16,10.16,0,0,1,2.6-7,13.08,13.08,0,0,1,7.16-3.89q1-.22,4.74-1c2.52-.51,4.68-1,6.48-1.41s3.75-.95,5.85-1.56q-.18-4-1.59-5.82t-5.86-1.86a12.17,12.17,0,0,0-5.74,1.07,9.3,9.3,0,0,0-3.31,3.19c-.92,1.42-1.56,2.36-1.94,2.81a3.21,3.21,0,0,1-2.44.68,4.27,4.27,0,0,1-2.92-1.08,3.55,3.55,0,0,1-1.23-2.78,8.48,8.48,0,0,1,1.87-5.14,13.43,13.43,0,0,1,5.84-4.11,26.4,26.4,0,0,1,9.87-1.61,27.94,27.94,0,0,1,10.39,1.56,9.63,9.63,0,0,1,5.34,4.94,21.55,21.55,0,0,1,1.56,9c0,2.35,0,4.35,0,6s0,3.46-.05,5.47a20.27,20.27,0,0,0,.93,5.89,18.34,18.34,0,0,1,.94,3.94,3.68,3.68,0,0,1-1.45,2.81,4.84,4.84,0,0,1-3.29,1.27,4.41,4.41,0,0,1-3-1.45A21.66,21.66,0,0,1,268.94,277Zm-.66-14.5a51.78,51.78,0,0,1-6.4,1.7c-2.81.6-4.74,1-5.82,1.32a8,8,0,0,0-3.08,1.66,4.22,4.22,0,0,0-1.47,3.43,5.06,5.06,0,0,0,1.72,3.87,6.37,6.37,0,0,0,4.52,1.6,11.88,11.88,0,0,0,5.49-1.3,8.79,8.79,0,0,0,3.69-3.36q1.35-2.28,1.35-7.49Z"/><path class="cls-1" d="M298.24,268.14v8.37a6.49,6.49,0,0,1-1.43,4.57,4.81,4.81,0,0,1-3.64,1.52,4.58,4.58,0,0,1-3.56-1.54,6.59,6.59,0,0,1-1.39-4.55v-27.9c0-4.51,1.62-6.76,4.88-6.76a4.1,4.1,0,0,1,3.6,1.58,8.72,8.72,0,0,1,1.21,4.66,17.61,17.61,0,0,1,3.69-4.66,7.63,7.63,0,0,1,5-1.58,13,13,0,0,1,6.13,1.58c2,1,3,2.45,3,4.18a4,4,0,0,1-1.27,3,3.9,3.9,0,0,1-2.73,1.2,12.66,12.66,0,0,1-2.66-.68,12.18,12.18,0,0,0-3.73-.68,5.41,5.41,0,0,0-3.6,1.16,7.35,7.35,0,0,0-2.16,3.43,23.85,23.85,0,0,0-1.07,5.41C298.34,262.57,298.24,265.13,298.24,268.14Z"/><path class="cls-1" d="M347.32,264.68h-19.6a13.33,13.33,0,0,0,1.37,6,9.47,9.47,0,0,0,3.57,3.92,9.32,9.32,0,0,0,4.9,1.33,12.06,12.06,0,0,0,3.28-.43,10.65,10.65,0,0,0,2.88-1.32,21.27,21.27,0,0,0,2.57-1.93c.79-.68,1.8-1.61,3-2.79a3.28,3.28,0,0,1,2.2-.66,3.66,3.66,0,0,1,2.5.85,3,3,0,0,1,.95,2.38,6.5,6.5,0,0,1-1.06,3.18,12.74,12.74,0,0,1-3.21,3.49,18.59,18.59,0,0,1-5.4,2.77,23.39,23.39,0,0,1-7.47,1.1q-9.66,0-15-5.51t-5.36-14.94a24.94,24.94,0,0,1,1.32-8.24,18.25,18.25,0,0,1,3.85-6.52,16.66,16.66,0,0,1,6.24-4.16,22.36,22.36,0,0,1,8.23-1.45,19.41,19.41,0,0,1,10.07,2.48,16.32,16.32,0,0,1,6.3,6.4,16.91,16.91,0,0,1,2.09,8c0,2.53-.72,4.16-2.17,4.91A13.57,13.57,0,0,1,347.32,264.68ZM327.72,259h18.17q-.37-5.13-2.77-7.69a8.32,8.32,0,0,0-6.34-2.55,8,8,0,0,0-6.14,2.59Q328.23,253.94,327.72,259Z"/><path class="cls-1" d="M391.48,290.79V276.65a22.32,22.32,0,0,1-6,4.43,15.78,15.78,0,0,1-6.95,1.52,15.43,15.43,0,0,1-8.5-2.46,16.54,16.54,0,0,1-6-7.07,28.1,28.1,0,0,1,0-21.8,16,16,0,0,1,6.11-7,16.35,16.35,0,0,1,8.68-2.38A15.29,15.29,0,0,1,386,243.6a14.74,14.74,0,0,1,5.47,5.08v-1.21a6,6,0,0,1,1.32-4.19,4.8,4.8,0,0,1,6.83,0,5.94,5.94,0,0,1,1.32,4.2v43.32c0,4.45-1.57,6.68-4.73,6.68q-2.94,0-3.84-1.8A11,11,0,0,1,391.48,290.79Zm-19.64-28.64a17,17,0,0,0,1.31,7,9.76,9.76,0,0,0,3.43,4.33,8.16,8.16,0,0,0,4.59,1.41,9.09,9.09,0,0,0,4.92-1.41,9.83,9.83,0,0,0,3.59-4.31A16.78,16.78,0,0,0,391,262a17.32,17.32,0,0,0-.79-5.43,11.63,11.63,0,0,0-2.14-4,8.88,8.88,0,0,0-3.12-2.39,9,9,0,0,0-3.75-.79,8.28,8.28,0,0,0-6.72,3.34Q371.85,256,371.84,262.15Z"/><path class="cls-1" d="M437,277v-1.29a22.44,22.44,0,0,1-3.78,3.82,13.88,13.88,0,0,1-4.33,2.29,17.65,17.65,0,0,1-5.36.76,13.9,13.9,0,0,1-6.52-1.51,10.91,10.91,0,0,1-4.46-4.15q-1.87-3.19-1.87-9.17V247.84a6.46,6.46,0,0,1,1.36-4.5,4.63,4.63,0,0,1,3.6-1.49,4.76,4.76,0,0,1,3.67,1.51,6.36,6.36,0,0,1,1.39,4.48v16a24.82,24.82,0,0,0,.59,5.85,7,7,0,0,0,2.11,3.71,6.05,6.05,0,0,0,4.13,1.34,8.41,8.41,0,0,0,4.77-1.5,8.91,8.91,0,0,0,3.27-3.93q.84-2.13.84-9.33V247.84a6.36,6.36,0,0,1,1.4-4.48,4.7,4.7,0,0,1,3.63-1.51,4.65,4.65,0,0,1,3.6,1.49,6.46,6.46,0,0,1,1.36,4.5v29a6.26,6.26,0,0,1-1.3,4.3,4.64,4.64,0,0,1-6.76-.06A6,6,0,0,1,437,277Z"/><path class="cls-1" d="M461.49,237.19a5.27,5.27,0,0,1-3.58-1.29,5,5,0,0,1,0-7.14,5.13,5.13,0,0,1,3.54-1.37,5.2,5.2,0,0,1,3.45,1.25,4.45,4.45,0,0,1,1.51,3.63,4.59,4.59,0,0,1-1.47,3.62A5.07,5.07,0,0,1,461.49,237.19Zm5,10.35v29a6.45,6.45,0,0,1-1.44,4.55,4.72,4.72,0,0,1-3.63,1.54A4.54,4.54,0,0,1,457.8,281a6.65,6.65,0,0,1-1.38-4.51V247.84a6.41,6.41,0,0,1,1.38-4.48,4.61,4.61,0,0,1,3.58-1.51,4.76,4.76,0,0,1,3.63,1.51A5.8,5.8,0,0,1,466.45,247.54Z"/><path class="cls-1" d="M486.05,247.47v1.21a19.68,19.68,0,0,1,5.87-5.12,14.35,14.35,0,0,1,6.9-1.63,16,16,0,0,1,8.52,2.38,16.51,16.51,0,0,1,6.15,7,24.42,24.42,0,0,1,2.26,10.86,26.45,26.45,0,0,1-1.31,8.5,19.08,19.08,0,0,1-3.58,6.5,15.7,15.7,0,0,1-5.37,4,15.93,15.93,0,0,1-6.67,1.41,14,14,0,0,1-7.21-1.73,20.44,20.44,0,0,1-5.56-5.06v15.05q0,6.61-4.81,6.61c-1.89,0-3.13-.57-3.74-1.71a10.65,10.65,0,0,1-.92-5V247.54a6.24,6.24,0,0,1,1.25-4.27,4.29,4.29,0,0,1,3.41-1.42,4.54,4.54,0,0,1,3.47,1.45A6,6,0,0,1,486.05,247.47ZM505.69,262a17.49,17.49,0,0,0-1.21-6.81,10.09,10.09,0,0,0-3.36-4.37,8.08,8.08,0,0,0-4.76-1.52,8.92,8.92,0,0,0-7,3.27q-2.85,3.27-2.84,9.62,0,6,2.82,9.3a8.83,8.83,0,0,0,7,3.32A8,8,0,0,0,501,273.4a9.84,9.84,0,0,0,3.41-4.35A17.17,17.17,0,0,0,505.69,262Z"/><path class="cls-1" d="M549.12,277a31.74,31.74,0,0,1-7,4.24,19.74,19.74,0,0,1-7.62,1.41,14.47,14.47,0,0,1-6.77-1.52,11.2,11.2,0,0,1-4.5-4.13,10.77,10.77,0,0,1-1.58-5.66,10.12,10.12,0,0,1,2.61-7,13,13,0,0,1,7.16-3.89c.63-.15,2.21-.48,4.73-1s4.68-1,6.48-1.41,3.75-.95,5.86-1.56q-.19-4-1.6-5.82T541,248.75a12.17,12.17,0,0,0-5.74,1.07A9.3,9.3,0,0,0,532,253a31.86,31.86,0,0,1-1.94,2.81,3.2,3.2,0,0,1-2.44.68,4.27,4.27,0,0,1-2.92-1.08,3.55,3.55,0,0,1-1.23-2.78,8.48,8.48,0,0,1,1.87-5.14,13.49,13.49,0,0,1,5.84-4.11,26.4,26.4,0,0,1,9.87-1.61,27.94,27.94,0,0,1,10.39,1.56,9.63,9.63,0,0,1,5.34,4.94,21.55,21.55,0,0,1,1.56,9q0,3.52,0,6c0,1.64,0,3.46-.06,5.47a20,20,0,0,0,.94,5.89,18.73,18.73,0,0,1,.93,3.94,3.68,3.68,0,0,1-1.45,2.81,4.82,4.82,0,0,1-3.28,1.27,4.41,4.41,0,0,1-3.05-1.45A21.67,21.67,0,0,1,549.12,277Zm-.66-14.5a52.53,52.53,0,0,1-6.41,1.7q-4.2.9-5.82,1.32a8,8,0,0,0-3.08,1.66,4.22,4.22,0,0,0-1.47,3.43,5.06,5.06,0,0,0,1.72,3.87,6.37,6.37,0,0,0,4.52,1.6,11.88,11.88,0,0,0,5.49-1.3,8.73,8.73,0,0,0,3.69-3.36c.9-1.52,1.36-4,1.36-7.49Z"/><path class="cls-2" d="M126.69,2.91s40.4-9,54,4.64,7.17,41,4.31,50.73c0,0-17-16.81-40.75-16.81C143.21,41.47,130.28,6.16,126.69,2.91Z"/><path class="cls-3" d="M44.81,41.47C21,41.47,4.06,58.28,4.06,58.28,1.19,48.52-5.26,21.19,8.36,7.55s54-4.64,54-4.64C58.8,6.16,45.87,41.47,44.81,41.47Z"/><path class="cls-4" d="M95.62,17.92s15.53-16.08,31.07-15c0,0,20.56,14.22,17.21,39.55,0,0-21,6.06-33.66,15.82C110.24,58.28,89.88,31.39,95.62,17.92Z"/><path class="cls-5" d="M93.58,17.92S78,1.84,62.5,2.91c0,0-21,13.22-17.69,38.56,0,0,21.44,7.05,34.15,16.81C79,58.28,99.31,31.39,93.58,17.92Z"/><path class="cls-6" d="M115.82,44.27a21.25,21.25,0,0,1-42.48,0c0-11.46,12.14-26.35,21.24-26.35C102.84,17.92,115.82,32.81,115.82,44.27Z"/><path class="cls-7" d="M144.27,145.56c23.77,0,40.75-16.81,40.75-16.81,2.86,9.76,9.32,37.09-4.31,50.72s-54,4.65-54,4.65C130.28,180.87,143.21,145.56,144.27,145.56Z"/><path class="cls-8" d="M62.38,184.12s-40.39,9-54-4.65-7.17-41-4.3-50.72c0,0,17,16.81,40.75,16.81C45.87,145.56,58.8,180.87,62.38,184.12Z"/><path class="cls-4" d="M95.62,169.1s15.53,16.09,31.07,15c0,0,20.56-14.22,17.21-39.56,0,0-21-6.05-33.66-15.81C110.24,128.75,89.88,155.64,95.62,169.1Z"/><path class="cls-5" d="M93.58,169.1S78,185.19,62.5,184.12c0,0-20.71-12.84-17.37-38.17,0,0,21.12-7.44,33.83-17.2C79,128.75,99.31,155.64,93.58,169.1Z"/><path class="cls-6" d="M115.82,142.76a21.25,21.25,0,0,0-42.48,0c0,11.46,12.14,26.34,21.24,26.34C102.84,169.1,115.82,154.22,115.82,142.76Z"/><path class="cls-9" d="M19.89,95S3,113.21,4.06,128.75c0,0,15.73,20.54,41.07,17.2,0,0,5.35-23.65,15.11-36.36C60.24,109.59,33.35,89.23,19.89,95Z"/><path class="cls-10" d="M19.89,92.93S3,73.82,4.06,58.28c0,0,15.41-20.16,40.75-16.81,0,0,5.67,24.13,15.43,36.84C60.24,78.31,33.35,98.66,19.89,92.93Z"/><path class="cls-11" d="M46.23,115.17a21.25,21.25,0,0,0,0-42.48c-11.45,0-26.34,12.14-26.34,21.24C19.89,102.19,34.78,115.17,46.23,115.17Z"/><path class="cls-9" d="M169.11,95s16.9,18.25,15.83,33.79c0,0-15.74,20.54-41.08,17.2,0,0-5.35-23.65-15.11-36.36C128.75,109.59,155.64,89.23,169.11,95Z"/><path class="cls-10" d="M169.11,92.93S186,73.82,184.94,58.28c0,0-15.41-20.16-40.75-16.81,0,0-5.68,24.13-15.44,36.84C128.75,78.31,155.64,98.66,169.11,92.93Z"/><path class="cls-11" d="M142.76,115.17a21.25,21.25,0,0,1,0-42.48c11.46,0,26.35,12.14,26.35,21.24C169.11,102.19,154.22,115.17,142.76,115.17Z"/></svg>